<?xml version="1.0" encoding="utf-8"?>

<!DOCTYPE svg PUBLIC "-//W3C//DTD SVG 1.1//EN" "http://www.w3.org/Graphics/SVG/1.1/DTD/svg11.dtd">
<svg version="1.1" id="Layer_1" xmlns="http://www.w3.org/2000/svg" xmlns:xlink="http://www.w3.org/1999/xlink" x="0px" y="0px"
	 viewBox="250 410 750 910" xml:space="preserve">
<g>
	<path fill="#4F669A" stroke="#4F669A" stroke-width="0.3" d="M987.84,473.82c6.8799-4.18,15.09-7.63,23.27-5.72
		c6.24,1.34,11.13,6.15,14.09,11.62c3.4401,6.42,5.8201,14.01,3.9,21.29c-2.51,8.89-10.53,15.23-19.11,17.87
		c-3.22,1.14-6.67,0.55-9.98,0.98c-6.99,2.1-12.45,8.26-19.98,8.7c-3.75,0.05-5.86-3.39-7.9901-5.9c2.32-5.19,7.56-8.04,12.61-10.03
		c6.3-2.11,10.23-8.43,11.52-14.67c0.95-4.08-1.54-8.36-5.48-9.66c-12.01-4.18-26.85-1.22-35.02,8.94
		c-0.7-7.7,0.05-16.86,6.75-21.88C969.83,469.99,979.57,471.9,987.84,473.82z"/>
	<path fill="#44446F" stroke="#44446F" stroke-width="0.3" d="M955.67,497.24c8.17-10.16,23.01-13.12,35.02-8.94
		c3.94,1.3,6.43,5.58,5.48,9.66c-1.29,6.24-5.22,12.56-11.52,14.67c-5.05,1.99-10.29,4.84-12.61,10.03l-0.37-0.43
		c-3.92,6.94-6.81,14.78-7.01,22.8c-2.9-10.29-10.41-18.7401-19.15-24.58C947.1,512.09,950.24,503.89,955.67,497.24z"/>
	<path fill="#669A4F" stroke="#669A4F" stroke-width="0.3" d="M855.96,509.99c18.67-3.78,37.89-6.58,56.95-4.34
		c9.58,1.27,19.8,3.98,26.39,11.56c-11.38,9.33-21.48,20.63-34.96,27.07c-5.3701,2.71-11.54,2.6899-17.39,2.36
		c-22.84-1.19-45.42-5.03-68.07-7.98c-6.08-0.74-12.19-1.98-18.32-1.21c2.93-4.02,6.56-7.48,10.7-10.24
		C824.64,518.2,840.35,513.45,855.96,509.99z"/>
	<path fill="#C71010" stroke="#C71010" stroke-width="0.3" d="M904.34,544.28c13.48-6.44,23.58-17.7401,34.96-27.07
		c2.04,1.13,4.18,2.06,6.21,3.24c8.74,5.84,16.25,14.29,19.15,24.58c1.76,6.85,1.11,14.0099,0.73,21
		c-1.58,15.92-4.73,31.67-9.03,47.0699c-3.47,13.1801-10.83,25.19-20.32,34.89c-8.0099,7.9-18.49,14.44-30.03,14.65
		c-13.82-1.69-27.85,2.85-41.57-0.2c-15.21-3.9-27.04-15.47-35.85-27.96c-6.11-9.16-11.79-18.85-14.94-29.45
		c-3.71-14.4301-8.4301-28.77-16.09-41.6201c-2.98-4.7599-6.33-9.36-10.55-13.1c3.83-4.97,7.62-10.23,13.55-12.86
		c6.13-0.77,12.24,0.47,18.32,1.21c22.65,2.95,45.23,6.79,68.07,7.98C892.8,546.97,898.97,546.99,904.34,544.28z"/>
	<path fill="#485C8B" stroke="#485C8B" stroke-width="0.3" d="M690.31,526.46c1.75-3.04,6.38-2.86,8.5-0.33
		c3.27,3.37,3.84,8.2,4.82,12.57c2.06,8.38,3.66,16.9,4.46,25.51c0.34,4.96,0.73,10.16-1.02,14.92c-0.92,2.79-4.26,4.33-6.95,3.1
		c-3.56-1.49-4.97-5.41-6.23-8.73c-2.22-7-3.01-14.32-4.11-21.55c-0.6801-4.69-1.42-9.39-1.52-14.13
		C688.35,533.99,688.33,529.86,690.31,526.46z"/>
	<path fill="#DDBB27" stroke="#DDBB27" stroke-width="0.3" d="M703.63,538.7c0.04-0.47,0.13-1.4,0.17-1.87
		c8.09,0.56,16.21,0.16,24.31,0.5c13.41,0.7,26.89,1.78,39.96,5c6.67,1.64,13.31,3.95,18.94,7.98c4.22,3.74,7.57,8.34,10.55,13.1
		c7.66,12.85,12.38,27.19,16.09,41.6201c3.15,10.6,8.83,20.29,14.94,29.45c8.81,12.49,20.64,24.06,35.85,27.96
		c13.72,3.05,27.75-1.49,41.57,0.2c-2.93,2.17-5.86,4.5-7.67,7.73c-6.86,11.19-12.6801,23.01-17.65,35.16
		c-4.46,11.1-8.79,22.8199-8.06,34.98c-7.22,1.77-14.44,3.63-21.76,4.93c-0.04-14.07,0.76-28.25,3.76-42.03
		c2.46-10.77,6.19-21.91,14.43-29.68c-6.77-0.06-13.58-0.66-20.04-2.81c-14.26-5.08-24.47-16.93-33.71-28.36
		c-4.59-5.19-6.91-11.8-10.11-17.83c-6.82-13.42-13.07-27.16-20.77-40.1c-2.96-5.14-7.15-9.56-12.38-12.41
		c-7.61-5.0099-16.8-6.39-25.67-7.24c-12.73-1.15-25.53-1.45-38.29-0.77C707.29,555.6,705.69,547.08,703.63,538.7z"/>
	<path fill="#283551" stroke="#283551" stroke-width="0.3" d="M603.71,550.15c28.17-4.21,56.36-8.28,84.55-12.33
		c0.1,4.74,0.84,9.44,1.52,14.13c1.1,7.23,1.89,14.55,4.11,21.55c-26.82,6.79-54.23,11.77-81.92,12.75
		c0.97-7.39,0.51-14.94-0.96-22.23C609.99,558.81,607.47,553.91,603.71,550.15z"/>
	<path fill="#485C8B" stroke="#485C8B" stroke-width="0.3" d="M589.76,547.76c4.63-2.34,9.96-0.31,13.95,2.39
		c3.7599,3.7599,6.28,8.66,7.3,13.87c1.47,7.29,1.93,14.84,0.96,22.23c-0.71,4.34-3.17,8.97-7.7599,10.09
		c-7.41,1.93-14.71-3.27-17.88-9.73c-3.7-7.24-4.36-15.68-3.99-23.68C582.83,557.29,584.4,550.69,589.76,547.76z"/>
	<path fill="#C71010" stroke="#C71010" stroke-width="0.3" d="M772.05,572.22c5.23,2.85,9.42,7.27,12.38,12.41
		c7.7,12.94,13.95,26.68,20.77,40.1c3.2,6.03,5.52,12.64,10.11,17.83c9.24,11.43,19.45,23.28,33.71,28.36
		c-4.73-0.54-9.5-0.87-14.12-2.11c-13.59-3.2-25.15-12.34-33.12-23.6c-10.39-14.4901-20.8701-28.95-32.75-42.26
		c-2.8701-3.27-6.3101-7.24-5.2-11.94C765.4,584.31,768.93,578.29,772.05,572.22z"/>
	<path fill="#C71010" stroke="#C71010" stroke-width="0.3" d="M554.88,682.65c17.7-3.07,35.77-0.53,53.25,2.75
		c37.28,6.94,72.55,21.91,105.81,39.77c24.41,13.64,48.68,28.54,68.17,48.86c8.99,9.14,14.32,21.1299,17.94,33.27
		c-4.28-0.67-8.16-2.61-12.17-4.11c-28.94-10.58-58.67-19-88.86-25.17c-10.24-1.97-20.6-3.46-31.03-3.94
		c-26.27-0.07-52.19,7.19-75.57,18.92c11.39,5,23.43,8.51,34.64,14c14.21,5.88,27.43,13.75,40.94,21.01
		c13.47,6.71,27.96,11.93,43.04,13.22c12.13,1.58,24.52-0.42,36.1-4.12c10.68-3.98,20.77-9.33,31.21-13.86
		c6.61-3.19,13.38-6.28,19.1801-10.84c1.02-0.79,2.12-1.49,3.29-2.04c2.63,10.49,0.13,22.12-7.28,30.13
		c-10.6,11.59-24.47,20.16-39.41,24.93c-22.8,7.25-46.65,10.5-70.39,12.77c-18.51,1.79-37.08,3.32-55.7,2.98
		c-13.46,0.35-27-0.51-40.07-3.91c-12.91-2.76-25.16-8.14-36.22-15.31c-9.8-7-17.91-16.11-24.15-26.39
		c-0.0699-0.13-0.23-0.39-0.3-0.53l-0.41-0.79c-0.06-0.12-0.18-0.38-0.25-0.5c-4.79-9.72-7.41-20.24-10.66-30.51
		c-5.56-21.24-12.53-42.31-14.35-64.31c-0.74-10.55-0.07-21.99,6.18-30.94c3.93-5.9,10.31-9.35,16.19-12.98
		C533.46,689.14,543.84,684.5,554.88,682.65 M572.51,711.62c-6.73,1.77-12.85,5.24-19.57,7.07c-5.97,1.8-13.12,4.3-15.2,10.88
		c-1.81,7.5,0.81,15.14,3.7,22.01c2.53,5.86,6.99,11.69,13.61,12.95c8.07,1.29,15.62-2.61,22.84-5.6c4.27-1.97,8.96-2.78,13.23-4.75
		c3.03-1.45,3.8-5.15,3.64-8.19c-0.35-6.39-1.81-12.65-3.43-18.82c-1.51-5.27-3.66-10.9-8.33-14.16
		C579.98,710.83,576,710.92,572.51,711.62z"/>
	<path fill="#B40F0F" stroke="#B40F0F" stroke-width="0.3" d="M872.63,740.51c4.45-1.19,8.91-2.39,13.39-3.5
		c5.22,14.93,12.27,29.54,13.76,45.48c3.91,23.69,8.9,47.19,14.49,70.54c4.5,17.55,8.99,35.15,15.42,52.11
		c2.68,6.99,5.49,14.06,10.05,20.08c6.88,9.11,15.82,16.4301,25.31,22.6801c12.56,8.41,26.38,14.73,39.12,22.85
		c5.26,3.54,11.56,8.02,11.33,15.15c-5.88-2.33-12.03-4.73-18.47-4.15c-7.11,0.43-13.63,4.14-18.4301,9.25
		c-3.28,3.56-5.7599,7.75-7.93,12.05c-24.49-20.55-58.66-29.31-89.87-21.9c-10.19,2.97-19.03,9.4-26.21,17.1
		c-17.46,19.6-27.27,44.72-34.07,69.75c-1.56,4.65-1.3,10.37-5.28,13.84c-7.62,5.98-18,5.24-26.71,2.39
		c-0.17-11.95,1.5099-23.9399,5.12-35.34c5.58-18.11,15.34-34.61,26.46-49.83c10.04-13.79,21.53-26.41,32.73-39.24
		c4.89-5.79,10.03-11.5,13.64-18.21c3.56-7.68,2.56-16.5,1.38-24.61c-3.2-17.84-9.66-34.92-16.86-51.49
		c-20.99,13.4-42.3,26.28-64.01,38.46c-15.81,8.57-31.58,17.45-48.54,23.5601c-11.74,4.36-24.52,3.37-36.75,2.42
		c-28.98-2.84-57.62-8.52-86.64-10.9c-11.47-0.73-23.51-1.43-34.23,3.52c-6.9,2.67-11.52,8.73-16.07,14.26
		c-9.09,11.74-16.74,24.54-23.91,37.53c-8.56,14.44-16.43,29.29-25.03,43.73c-3.73,6.03-7.59,12.04-12.3,17.3699
		c-6.97,8.9401-22.23,9.41-29.16,0.1801c-3.3-3.63-3.43-8.84-6.06-12.84c1.38,0.3,2.35-0.23,2.55-1.69
		c7.63-22.12,16.5-43.89,28-64.31c13.26-23.6,29.59-46.2,51.66-62.3c11.15-8.24,24-13.99,37.46-17.23
		c13.07,3.4,26.61,4.26,40.07,3.91c18.62,0.34,37.19-1.19,55.7-2.98c12.2,2.56,23.95,7.06,36.3,8.92
		c8.01,1.37,15.44-2.64,22.4901-5.83c16.89-8.28,32.98-18.06,49.05-27.8c16.95-10.57,33.83-21.26,50.37-32.46
		c-1.9-9.57-3.75-19.14-5.53-28.73c-5.23-0.27-11.04-0.9-14.89-4.86c-4.14-4.37-4.01-11.05-2.5601-16.5
		c3.08-9.48,10.58-17.01,18.97-22.08c3.85-2.53,8.5-2.83,12.93-3.42C858.19,744.14,865.41,742.28,872.63,740.51z"/>
	<path fill="#B40F0F" stroke="#B40F0F" stroke-width="0.3" d="M592.42,793c23.38-11.73,49.3-18.99,75.57-18.92
		c10.43,0.48,20.79,1.97,31.03,3.94c30.19,6.17,59.92,14.59,88.86,25.17c4.01,1.5,7.89,3.44,12.17,4.11
		c0.27,1.01,0.51,2.02,0.77,3.07c-1.17,0.55-2.27,1.25-3.29,2.04c-5.8,4.56-12.57,7.65-19.1801,10.84
		c-10.44,4.53-20.53,9.88-31.21,13.86c-11.58,3.7-23.97,5.7-36.1,4.12c-15.08-1.29-29.57-6.51-43.04-13.22
		c-13.51-7.26-26.73-15.13-40.94-21.01C615.85,801.51,603.81,798,592.42,793z"/>
	<path opacity="0.76" fill="#A26217" stroke="#A26217" stroke-width="0.3" enable-background="new    " d="M526.64,833.75
		c0.07,0.12,0.19,0.38,0.25,0.5C526.83,834.13,526.71,833.87,526.64,833.75z"/>
	<path opacity="0.78" fill="#AA7A1A" stroke="#AA7A1A" stroke-width="0.3" enable-background="new    " d="M527.3,835.04
		c0.07,0.14,0.23,0.4,0.3,0.53C527.53,835.44,527.37,835.18,527.3,835.04z"/>
	<path fill="#C7A924" stroke="#C7A924" stroke-width="0.3" d="M580.83,922.57c10.72-4.95,22.76-4.25,34.23-3.52
		c12.39,1.61,23.84,7.61,33.59,15.22c19.65,15.6,32.18,39.14,36.2599,63.72c3.48,21.48,0.59,44.5-10.66,63.38
		c-8.23,14.01-21.54,25.29-37.32,29.6801c-16.74,4.9099-35.17,1.7-50.13-6.9401c-7.65-4.3199-14.48-9.97-20.53-16.3099
		c18.44-10.3501,36.32-21.67,54.25-32.88c-0.97-9.63-1.71-19.4501-4.81-28.6801c-1.06-3.76-5.45-4.11-8.61-5.01
		c-14.48-3.14-29.28-4.73-44.08-5.35c-5.32-0.1-10.7-0.29-15.98,0.56c-3.45,0.59-5.9,3.29-8.34,5.55
		c-0.38-9.26,0.33-18.55,2.15-27.63c7.17-12.99,14.82-25.79,23.91-37.53C569.31,931.3,573.93,925.24,580.83,922.57z"/>
	<path fill="#29334A" stroke="#29334A" stroke-width="0.3" d="M615.06,919.05c29.02,2.38,57.66,8.06,86.64,10.9
		c18.15,26.08,27.32,58.34,25.38,90.07c-1.91,31.4399-15.34,62.84-39.65,83.4c-14.41,12.2699-32.49,20.21-51.32,22.2899
		c-19.83,2.37-40.18-1.8999-57.9-10.95c-15.88-8.04-29.75-19.78-40.85-33.65c10.15-3.23,19.66-8.0699,28.91-13.3099
		c6.05,6.34,12.88,11.99,20.53,16.3099c14.96,8.64,33.39,11.85,50.13,6.9401c15.78-4.39,29.09-15.67,37.32-29.6801
		c11.25-18.88,14.14-41.9,10.66-63.38c-4.08-24.58-16.61-48.12-36.2599-63.72C638.9,926.66,627.45,920.66,615.06,919.05z"/>
	<path fill="#29334A" stroke="#29334A" stroke-width="0.3" d="M515.82,1018.09c8.6-14.44,16.47-29.29,25.03-43.73
		c-1.8199,9.08-2.53,18.37-2.15,27.63C532.04,1008.58,524.57,1014.54,515.82,1018.09z"/>
	<path fill="#273146" stroke="#273146" stroke-width="0.3" d="M880.8,981.15c31.21-7.41,65.38,1.35,89.87,21.9
		c2.17-4.3,4.65-8.49,7.93-12.05c18.7401,13.16,34.38,30.43,46.74,49.64c19.78,30.91,31.51,66.95,33.66,103.59v20.53
		c-1.16,19.26-5.1899,38.5-13.22,56.11c-7.22,15.92-17.85,30.52-31.82,41.16c-14.61,11.23-32.83,17.5399-51.2401,17.97h-4.42
		c-18.49-0.62-36.53-6.5699-52.46-15.84c-28.3701-16.54-50.53-42.3301-65.8701-71.12c-17.85-33.9601-27.3799-72.77-24.73-111.2001
		c3.98-3.47,3.72-9.1899,5.28-13.84c6.8-25.03,16.61-50.15,34.07-69.75c1.47,14.66,3.34,29.29,5.05,43.9301
		c-10.91,14.21-15.81,32.13-17.33,49.7599c-1.99,25.27,2.98,50.79,12.57,74.15c6.63,15.9501,15.54,31.03,26.98,44
		c11.78,13.38,26.43,24.8401,43.6,30.29c14.33,4.8099,30.82,3.8099,43.9-4.0601c14.04-8.2,23.1-22.8099,28.12-37.9299
		c7.81-24.1901,6.89-50.49,0.94-74.98c-8.12-32.62-25.18-63.9701-51.78-85.1c-15.75-12.3101-36.4-20.9501-56.58-16.29
		c-0.57,0.13-1.71,0.38-2.28,0.5C885.49,1008.72,883.1,994.94,880.8,981.15z"/>
	<path fill="#C7A924" stroke="#C7A924" stroke-width="0.3" d="M854.59,998.25c7.18-7.7,16.02-14.13,26.21-17.1
		c2.3,13.79,4.69,27.5699,6.98,41.37c0.5699-0.12,1.71-0.37,2.28-0.5c-0.56,0.27-1.68,0.81-2.24,1.08
		c4.36,25.23,8.49,50.51,12.08,75.86c1,8.6801,2.65,17.3101,2.85,26.0601c0.21,4.3199-4.04,7.08-7.83,7.79
		c-7.21,1.25-15.57,0.7699-21.25-4.38c-3.44-2.77-4.16-7.3101-4.71-11.41c-3.45-24.9-6.34-49.88-9.32-74.84
		C857.93,1027.54,856.06,1012.91,854.59,998.25z"/>
	<path fill="#24314F" stroke="#24314F" stroke-width="0.3" d="M262.85,996.81c21.41-8.13,45.54-8.31,67.27-1.24
		c27.77,8.86,51.51,28.17,67.96,52.0099c14.25,20.4601,23.29,44.38,26.91,69.01c5.69,39.6801-4.13,82.8101-31.6,112.8201
		c-13.19,14.46-30.52,25.2-49.51,30.0699c-21.06,5.59-43.76,3.7001-63.98-4.22c-29.33-11.39-53.34-34.27-68.75-61.4301
		c-22.95-40.4399-28.24-91.5399-10.2-134.83C212.31,1031.26,234.39,1007.27,262.85,996.81 M264.26,1039.4301
		c-13.92,5.33-25.5,15.86-33.18,28.5199c-7.89,12.8101-12.06,27.65-13.37,42.5701l-1.35-0.29c-0.55,6.16-0.5,12.38,0.02,18.55
		l1.33-0.2001c2.51,30.0901,15.9,59.79,38.98,79.65c14.89,12.84,34.5,21.22,54.4,19.5601c14.36-0.91,28.03-7.51,38.38-17.36
		c11.84-11.3201,19.41-26.5601,23.02-42.42c6.28-27.71,1.21-57.4301-12.22-82.3101c-11.34-20.87-29.48-38.8999-52.27-46.6699
		C293.94,1034.23,278.18,1034.04,264.26,1039.4301z"/>
	<path fill="#C71010" stroke="#C71010" stroke-width="0.3" d="M538.7,1001.99c2.44-2.26,4.89-4.96,8.34-5.55
		c5.28-0.85,10.66-0.66,15.98-0.56c14.8,0.62,29.6,2.21,44.08,5.35c3.16,0.9,7.55,1.25,8.61,5.01c3.1,9.23,3.84,19.05,4.81,28.6801
		c-17.93,11.21-35.81,22.5299-54.25,32.88c-9.25,5.24-18.76,10.08-28.91,13.3099c-37.25,12.46-74.85,23.86-112.37,35.48
		c-3.62-24.63-12.66-48.5499-26.91-69.01c6.95-11.58,19.01-19.37,31.89-22.8099c12.46-3.54,25.56-3.14,38.33-1.97
		c2.63,4.0001,2.76,9.21,6.06,12.84c6.93,9.23,22.19,8.76,29.16-0.1801c4.71-5.33,8.57-11.34,12.3-17.3699
		C524.57,1014.54,532.04,1008.58,538.7,1001.99z"/>
	<path fill="#DDBB27" stroke="#DDBB27" stroke-width="0.3" d="M890.06,1022.02c20.18-4.66,40.83,3.98,56.58,16.29
		c26.6,21.1299,43.66,52.48,51.78,85.1c5.95,24.49,6.87,50.7899-0.94,74.98c-5.02,15.12-14.08,29.73-28.12,37.9299
		c-13.08,7.87-29.57,8.87-43.9,4.0601c-17.17-5.45-31.82-16.91-43.6-30.29c-11.44-12.97-20.35-28.0499-26.98-44
		c-9.59-23.36-14.56-48.88-12.57-74.15c1.52-17.6299,6.42-35.5499,17.33-49.7599c2.98,24.96,5.87,49.9399,9.32,74.84
		c0.55,4.1,1.27,8.64,4.71,11.41c5.68,5.1499,14.04,5.63,21.25,4.38c3.79-0.7101,8.04-3.4701,7.83-7.79
		c-0.2-8.75-1.85-17.38-2.85-26.0601c-3.59-25.35-7.72-50.63-12.08-75.86C888.38,1022.83,889.5,1022.29,890.06,1022.02z"/>
	<path fill="#DDBB27" stroke="#DDBB27" stroke-width="0.3" d="M264.26,1039.4301c13.92-5.39,29.68-5.2001,43.74-0.4
		c22.79,7.77,40.93,25.7999,52.27,46.6699c13.43,24.88,18.5,54.6001,12.22,82.3101c-3.61,15.86-11.18,31.1-23.02,42.42
		c-10.35,9.85-24.02,16.45-38.38,17.36c-19.9,1.6599-39.51-6.7201-54.4-19.5601c-23.08-19.86-36.47-49.5599-38.98-79.65
		c-0.53-6.01-0.53-12.0599,0-18.0599c1.31-14.92,5.48-29.76,13.37-42.5701C238.76,1055.29,250.34,1044.76,264.26,1039.4301z"/>
	<path fill="#091D54" stroke="#091D54" stroke-width="0.3" d="M216.36,1110.23l1.35,0.29c-0.53,6-0.53,12.0499,0,18.0599
		l-1.33,0.2001C215.86,1122.61,215.81,1116.39,216.36,1110.23z"/>
</g>
</svg>
